<?xml version="1.0" encoding="utf-8"?>
<!-- Generator: Adobe Illustrator 24.0.1, SVG Export Plug-In . SVG Version: 6.00 Build 0)  -->
<svg version="1.1" id="Слой_1" xmlns="http://www.w3.org/2000/svg" xmlns:xlink="http://www.w3.org/1999/xlink" x="0px" y="0px"
	 viewBox="0 0 512 512" style="enable-background:new 0 0 512 512;" xml:space="preserve">
<style type="text/css">
	.st0{fill:#36B14A;}
	.st1{fill:url(#SVGID_1_);}
	.st2{fill:#FFFFFF;}
</style>
<path class="st0" d="M503.2,91.6c-4.7-43.7-39.1-78.2-82.8-82.8C310.9-2.9,201.1-2.9,91.6,8.8C47.9,13.4,13.4,47.9,8.8,91.6
	c-11.7,109.5-11.7,219.3,0,328.8c4.7,43.7,39.1,78.2,82.8,82.8c109.5,11.7,219.3,11.7,328.8,0c43.7-4.7,78.2-39.1,82.8-82.8
	C514.9,310.9,514.9,201.1,503.2,91.6z"/>
<linearGradient id="SVGID_1_" gradientUnits="userSpaceOnUse" x1="357.6577" y1="358.951" x2="150.5421" y2="151.8353" gradientTransform="matrix(1 0 0 -1 1.831055e-04 514)">
	<stop  offset="0" style="stop-color:#833AB4"/>
	<stop  offset="9.220000e-02" style="stop-color:#9C3495"/>
	<stop  offset="0.2927" style="stop-color:#DC2546"/>
	<stop  offset="0.392" style="stop-color:#FD1D1D"/>
	<stop  offset="0.5589" style="stop-color:#FC6831"/>
	<stop  offset="0.6887" style="stop-color:#FC9B40"/>
	<stop  offset="0.7521" style="stop-color:#FCAF45"/>
	<stop  offset="0.7806" style="stop-color:#FDB750"/>
	<stop  offset="0.8656" style="stop-color:#FECB6A"/>
	<stop  offset="0.9415" style="stop-color:#FFD87A"/>
	<stop  offset="1" style="stop-color:#FFDC80"/>
</linearGradient>
<path class="st1" d="M95.1,193.9c1.1-7.5,1.9-15.1,3.2-22.6c7.7-42.3,37.7-71.2,80.5-72.6c51.6-1.8,103.4-1.9,155,0
	c46.7,1.7,80.4,36.2,81.9,82.9c1.6,49.6,1.6,99.2,0,148.8c-1.5,46.7-35.2,81.2-81.9,82.9c-51.6,1.9-103.4,1.9-155,0
	c-46.7-1.8-78.9-36.4-82-83.1c-0.3-4-1.1-8.1-1.7-12.1C95.1,276.7,95.1,235.3,95.1,193.9z M256,385.6c23.6,0,47.3,0.7,70.8-0.2
	c37-1.4,59.7-23.4,60.6-60.4c1.1-46,1.1-92.1,0-138.2c-0.9-36.9-23.6-59.5-60.6-60.3c-46.9-1-93.9-1-140.8,0
	c-36.7,0.8-59.5,22.9-60.5,59.4c-1.3,46.6-1.3,93.3,0,139.9c1,36.5,23.8,58.1,60.5,59.5C209.4,386.3,232.7,385.6,256,385.6z"/>
<g>
	<path class="st2" d="M95.1,193.9c1.1-7.5,1.9-15.1,3.2-22.6c7.7-42.3,37.7-71.2,80.5-72.6c51.6-1.8,103.4-1.9,155,0
		c46.7,1.7,80.4,36.2,81.9,82.9c1.6,49.6,1.6,99.2,0,148.8c-1.5,46.7-35.2,81.2-81.9,82.9c-51.6,1.9-103.4,1.9-155,0
		c-46.7-1.8-78.9-36.4-82-83.1c-0.3-4-1.1-8.1-1.7-12.1C95.1,276.7,95.1,235.3,95.1,193.9z M256,385.6c23.6,0,47.3,0.7,70.8-0.2
		c37-1.4,59.7-23.4,60.6-60.4c1.1-46,1.1-92.1,0-138.2c-0.9-36.9-23.6-59.5-60.6-60.3c-46.9-1-93.9-1-140.8,0
		c-36.7,0.8-59.5,22.9-60.5,59.4c-1.3,46.6-1.3,93.3,0,139.9c1,36.5,23.8,58.1,60.5,59.5C209.4,386.3,232.7,385.6,256,385.6z"/>
	<path class="st2" d="M256,174c-45.3,0-82,36.7-82,82c0,45.3,36.7,82,82,82c45.3,0,82-36.7,82-82C338,210.7,301.3,174,256,174z
		 M256,309.8c-29.7,0-53.8-24.1-53.8-53.8s24.1-53.8,53.8-53.8s53.8,24.1,53.8,53.8S285.7,309.8,256,309.8z"/>
	<path class="st2" d="M362.3,170.3c0,10.8-8.7,19.5-19.5,19.5s-19.5-8.7-19.5-19.5c0-10.8,8.7-19.5,19.5-19.5
		S362.3,159.5,362.3,170.3z"/>
</g>
</svg>
